<svg xmlns="http://www.w3.org/2000/svg" xml:space="preserve" width="50" height="50" fill="#fff" viewBox="0 0 31.465 31.465"><path d="M30.218 7.011V5.028l-.286-.112c-.097-.038-2.427-.942-5.533-.942-3.328 0-6.194 1.014-8.526 3.014-2.332-2-5.199-3.014-8.527-3.014-3.107 0-5.436.904-5.533.942l-.287.112v1.837C.586 7.04 0 7.355 0 7.87v18.917h13.933c.482.432 1.186.705 1.975.705.787 0 1.492-.273 1.975-.705h13.582V7.87c-.001-.419-.475-.691-1.247-.859zM15.722 25.296c-1.157-.478-5.141-1.992-9.131-1.992-1.575 0-2.972.242-4.163.719V5.655a16.172 16.172 0 0 1 4.917-.779c3.063 0 5.696.927 7.846 2.733v10.965l.531-.584v7.306zm13.594-1.268c-1.277-.515-2.744-.773-4.371-.773-3.987 0-7.782 1.527-8.924 2.031v-7.299l.531.586V7.608c2.15-1.807 4.782-2.733 7.846-2.733 2.322 0 4.222.548 4.918.779v18.374z"/><path d="M23.917 9.94a.82.82 0 0 0-.795-.609.825.825 0 0 0-.714.414.802.802 0 0 0-.106.4l-.938.532a.837.837 0 0 0-.48-.157c-.246 0-.52.143-.617.288-.067.09-.274.266-.209.704.066.438.394.55.566.609l.018 1.014-.015.006.037.006a.834.834 0 0 0-.479.378.8.8 0 0 0-.104.4l-.97.548a.82.82 0 0 0-1.16 1.108.825.825 0 0 0 .451.357l.018 1.033a.819.819 0 0 0-.5.982.818.818 0 0 0 .795.609c.18 0 .352-.06.491-.164l.94.541a.84.84 0 0 0 .023.258.821.821 0 0 0 .795.609.828.828 0 0 0 .715-.414.814.814 0 0 0 .1-.516l.899-.506a.819.819 0 0 0 .535.211h.011a.825.825 0 0 0 .473-.152l1.002.575a.87.87 0 0 0 .023.259.821.821 0 0 0 .795.609.818.818 0 0 0 .815-.931l.9-.504a.82.82 0 0 0 .533.212h.014a.826.826 0 0 0 .822-.812.82.82 0 0 0-.463-.746l-.013-1.1a.826.826 0 0 0 .467-.728.827.827 0 0 0-.823-.836.82.82 0 0 0-.619.288l-.901-.519a.8.8 0 0 0-.231-.798l.012.003a.852.852 0 0 0-.221-.159l-.014-1.099a.828.828 0 0 0 .467-.728.825.825 0 0 0-.822-.835.813.813 0 0 0-.619.287l-.901-.518a.81.81 0 0 0-.003-.409zm-1.123.027a.378.378 0 1 1 .655.376.39.39 0 0 1-.518.14.378.378 0 0 1-.137-.516zm-2.289 1.372a.377.377 0 1 1 .757.01.382.382 0 0 1-.379.374h-.005a.38.38 0 0 1-.373-.384zm.065 2.408a.381.381 0 0 1 .696.09c.025.097.014.2-.037.288a.39.39 0 0 1-.518.139.38.38 0 0 1-.141-.517zm-2.239 1.607a.381.381 0 0 1 .323-.574.377.377 0 0 1 .369.471.376.376 0 0 1-.172.234.388.388 0 0 1-.52-.131zm.71 2.576a.39.39 0 0 1-.518.14.376.376 0 0 1-.176-.229.378.378 0 1 1 .694.089zm2.25 1.244a.39.39 0 0 1-.518.14.378.378 0 1 1 .518-.14zm1.107-1.425a.776.776 0 0 0 .039.248l-.836.47a.823.823 0 0 0-.228-.198.823.823 0 0 0-1.083.245l-.816-.469a.822.822 0 0 0-.351-1.018.868.868 0 0 0-.261-.094l-.016-.975a.819.819 0 0 0 .554-1.138l.801-.453a.82.82 0 0 0 1.273.156l.928.534c-.006.039-.012.08-.014.121a.827.827 0 0 0 .563.789l.017 1.015a.823.823 0 0 0-.57.767zm.437-2.564a.38.38 0 0 1 .383-.373.375.375 0 0 1 .373.384.38.38 0 0 1-.377.373v.209l-.005-.209a.38.38 0 0 1-.374-.384zm.388 2.956v.222l-.005-.222a.38.38 0 0 1-.374-.384.382.382 0 0 1 .383-.374.382.382 0 0 1 .375.384.381.381 0 0 1-.379.374zm2.621 1.1a.388.388 0 0 1-.517.139.386.386 0 0 1-.177-.229.37.37 0 0 1 .037-.286.378.378 0 0 1 .657.376zm2.31-1.408a.382.382 0 0 1-.377.373v.222l-.006-.222a.376.376 0 0 1-.373-.385.38.38 0 0 1 .383-.373.381.381 0 0 1 .373.385zm-.383-2.957a.381.381 0 0 1 .375.384.381.381 0 0 1-.379.374v.209l-.004-.209a.38.38 0 0 1 .008-.758zm-1.742-.286.928.535c-.006.039-.014.08-.014.121a.822.822 0 0 0 .736.826l.012.941a.825.825 0 0 0-.74.804.839.839 0 0 0 .037.247l-.836.471a.832.832 0 0 0-.227-.197.825.825 0 0 0-1.083.243l-.864-.496a.82.82 0 0 0-.397-1.055l-.014-1.1a.825.825 0 0 0 .468-.728.812.812 0 0 0-.063-.325l.78-.443a.82.82 0 0 0 .697.393.835.835 0 0 0 .58-.237zm-.211-.687c.025.098.013.2-.039.288-.1.173-.34.24-.516.139a.377.377 0 0 1 .189-.707.377.377 0 0 1 .366.28zm-.377-2.872a.378.378 0 0 1 .373.384.38.38 0 0 1-.377.374h-.006a.38.38 0 0 1-.373-.384.381.381 0 0 1 .383-.374zm-.814.245c-.006.04-.014.081-.014.123a.821.821 0 0 0 .736.825l.014.959h.004a.806.806 0 0 0-.735.807l-.938.533a.827.827 0 0 0-.479-.157.815.815 0 0 0-.618.288l-.9-.519a.83.83 0 0 0 0-.414.811.811 0 0 0-.303-.441l.019.004a.873.873 0 0 0-.157-.104l-.013-1.099a.823.823 0 0 0 .404-1.053l.78-.442a.822.822 0 0 0 .286.282.826.826 0 0 0 .987-.126l.927.534zM4.45 7.931l.19.718c4.782-1.267 9.084 1.079 9.128 1.103l.361-.649c-.185-.104-4.602-2.519-9.679-1.172zM4.45 10.034l.19.718c4.782-1.269 9.084 1.079 9.128 1.103l.361-.648c-.185-.105-4.602-2.519-9.679-1.173zM4.45 12.011l.19.718c4.782-1.266 9.084 1.081 9.128 1.104l.361-.648c-.185-.104-4.602-2.519-9.679-1.174zM4.45 14.178l.19.718c4.782-1.268 9.084 1.079 9.128 1.104l.361-.649c-.185-.105-4.602-2.52-9.679-1.173zM4.45 16.185l.19.719c4.782-1.268 9.084 1.079 9.128 1.104l.361-.649c-.185-.105-4.602-2.518-9.679-1.174zM4.45 18.247l.19.719c4.782-1.27 9.084 1.078 9.128 1.103l.361-.649c-.185-.105-4.602-2.517-9.679-1.173zM4.45 20.314l.19.72c4.782-1.269 9.084 1.078 9.128 1.103l.361-.647c-.185-.106-4.602-2.52-9.679-1.176z"/></svg>